<?xml version="1.0" encoding="UTF-8"?>
<svg id="Camada_1" xmlns="http://www.w3.org/2000/svg" version="1.1" viewBox="0 0 48.1 40">
  <!-- Generator: Adobe Illustrator 30.1.0, SVG Export Plug-In . SVG Version: 2.1.1 Build 136)  -->
  <defs>
    <style>
      .st0 {
        fill: #769eab;
      }
    </style>
  </defs>
  <path class="st0" d="M25.4,18.2v-2.1c0-.2-.1-.3-.3-.3h-3.3v-.4c0,0,1.7-10.6,1.7-10.6h0c0-.1.1-.2.1-.2l.9-.5c.2-.1.4-.2.7-.2.4,0,.8.2,1,.5l2.5,3.3c.4.6,1.1.9,1.8.9s.3,0,.4,0l1.1-.2c1-.2,1.8-.7,2.3-1.5,1-1.5,1-3.1.7-4.1C34.6,1,33.2,0,31.2,0c-1.2,0-2.7.3-4.2,1-3.8,1.7-5.8,3.1-8,4.7-1.4,1-2.4,2.6-2.7,4.4-.3,2.2-.8,5.4-.8,5.4v.3h-2.9c-.2,0-.3.1-.3.3v2c0,.2.1.3.3.3h2.4v.4c0,.4-.1.9-.2,1.5-.4,5.1-1.2,15.7-6.8,16.8h-.1s0,0,0,0l-1.5-.8c-.5-.3-.9-.8-.9-1.4v-1.7c-.1-.9-.8-1.6-1.7-1.6h-.8c0,0-.1,0-.2,0-.9,0-1.7.4-2.1,1-.8,1.1-.7,2.2-.5,2.9.5,1.7,2.2,3.3,4.2,4,1,.3,2.1.5,3,.5,3.5,0,6.8-2.1,9.6-6.4,2.3-3.5,3.5-9.5,4.3-14.9v-.3h3.8c.2,0,.3-.1.3-.3Z"/>
  <path class="st0" d="M48.1,27.2c0-4.2-3.3-6.1-5.4-6.8l-.9-.3.9-.3c1.2-.4,2.1-1.3,2.4-2.4.4-1,.2-2.1-.5-3.1-1.8-2.7-4.4-3.3-6.2-3.3s-1.9.1-2.9.4c-.9.3-2.6.7-3.3.9-.2,0-.3,0-.3,0h-.1s-.1,0-.1,0l-2.4-1.4c-.2-.1-.4-.2-.7-.2s-.5,0-.6.2l-1.5,1.5c-.2.1-.8.8-.2,1.6l1.5,1.5h0c0,0,0,.2,0,.2v12.5c0,.5-.2.8-.6,1.1l-.9.5c-.4.2-.4.6-.2,1.1l1.3,2.7c.6.2,1.1.3,1.7.3,1.7,0,3.3-.8,4.2-2.1l.2-.2.3.2c1.9,1.3,3.4,2.1,7.2,2.1s.3,0,.5,0c3.3,0,6.4-3.2,6.4-6.6ZM34.1,18v-3h.2c0,0,2-.9,2-.9h0s0,0,0,0c.2,0,2.4.3,3.1.9.6.5.9,1.4.7,2.3-.2,1-1,1.7-1.9,1.9-.2,0-.5,0-.8,0-1.6,0-3.2-.9-3.3-.9h-.2v-.3ZM38.9,30.1c-1.5,0-3.1-.5-4.6-1.3h-.1c0,0,0-.2,0-.2,0-.8,0-6.6,0-7.7v-.6s.5.4.5.4c.5.4,2.2.9,3.5,1.1,2.5.4,4.3,1.6,4.9,3.3s.2,2.6-.7,3.8c-.7.9-1.9,1.4-3.4,1.4Z"/>
</svg>